# xmcd
#
# Track frame offsets: 
#        150
#        11855
#        20844
#        31653
#        40576
#        49929
#        62014
#        74981
#        86681
#        95831
#        104968
#        113709
#        124519
#        135684
#        149354
#        159659
#        197794
#        205637
#        216035
#        225089
#
# Disc length: 3127 seconds
#
# Revision: 0
# Processed by: cddbd v1.5.2PL0 Copyright (c) Steve Scherf et al.
# Submitted via: ExactAudioCopy v0.99pb3
#
DISCID=250c3514
DTITLE=Johnny Cash - The World of Johnny Cash
DYEAR=1900
DGENRE=Country
TTITLE0=I Still Miss Someone
TTITLE1=Pickin' Time
TTITLE2=My Shoes Keep Walking Back To You
TTITLE3=I Want To Go Home
TTITLE4=I Feel Better All Over
TTITLE5=I'm So Lonesome I Could Cry
TTITLE6=Supper-Time
TTITLE7=In Them Old Cottonfields Back Home
TTITLE8=Delia's Gone
TTITLE9=One More RIde
TTITLE10=Accidentally On Purpose
TTITLE11=In The Jailhouse Now
TTITLE12=I Forgot More Than You'll Ever Know
TTITLE13=Casey Jones
TTITLE14=Frankie's Man Johnny
TTITLE15=The Legend Of John Henry's Hammer
TTITLE16=When Papa Played The Dobro
TTITLE17=Busted
TTITLE18=Sing It Pretty, Sue
TTITLE19=Waiting For A Train
EXTD=
EXTT0=
EXTT1=
EXTT2=
EXTT3=
EXTT4=
EXTT5=
EXTT6=
EXTT7=
EXTT8=
EXTT9=
EXTT10=
EXTT11=
EXTT12=
EXTT13=
EXTT14=
EXTT15=
EXTT16=
EXTT17=
EXTT18=
EXTT19=
PLAYORDER=
